<svg width="11" height="11" viewBox="0 0 11 11" fill="none" xmlns="http://www.w3.org/2000/svg">
<path d="M3.43787 0.780636C3.51584 0.780683 3.59338 0.795671 3.66541 0.825558C3.73733 0.855426 3.80177 0.900347 3.85681 0.955441L7.98279 5.07946C8.03804 5.1346 8.08178 5.20073 8.11169 5.27282C8.14152 5.34485 8.15662 5.4224 8.15662 5.50036C8.15657 5.57834 8.14158 5.65588 8.11169 5.7279C8.0967 5.76399 8.07769 5.79813 8.05603 5.83044L7.98279 5.92028L3.85779 10.0453C3.74644 10.1566 3.59532 10.219 3.43787 10.2191C3.28028 10.2191 3.1284 10.1567 3.01697 10.0453C2.9057 9.93395 2.84324 9.78276 2.84314 9.62536C2.84314 9.46778 2.90554 9.3159 3.01697 9.20446L6.72205 5.49939L3.01697 1.79528L3.01794 1.79431C2.96285 1.73926 2.91793 1.67483 2.88806 1.6029C2.85817 1.53088 2.84319 1.45334 2.84314 1.37536C2.84314 1.29744 2.85826 1.21982 2.88806 1.14782C2.91799 1.07569 2.96265 1.00962 3.01794 0.954464C3.07295 0.899506 3.1385 0.855362 3.21033 0.825558C3.28233 0.795756 3.35994 0.780636 3.43787 0.780636Z" fill="white" stroke="white" stroke-width="0.5"/>
</svg>
