<svg width="9" height="9" viewBox="0 0 9 9" fill="none" xmlns="http://www.w3.org/2000/svg">
<g clip-path="url(#clip0_2113_9)">
<path d="M0.28125 9H8.71875C8.79492 9 8.86084 8.97217 8.9165 8.9165C8.97217 8.86084 9 8.79492 9 8.71875C9 8.64258 8.97217 8.57666 8.9165 8.521C8.86084 8.46533 8.79492 8.4375 8.71875 8.4375H8.4375V5.0625C8.4375 4.75195 8.32764 4.48682 8.10791 4.26709C7.88818 4.04736 7.62305 3.9375 7.3125 3.9375H1.6875C1.37695 3.9375 1.11182 4.04736 0.89209 4.26709C0.672363 4.48682 0.5625 4.75195 0.5625 5.0625V8.4375H0.28125C0.205078 8.4375 0.13916 8.46533 0.0834961 8.521C0.027832 8.57666 0 8.64258 0 8.71875C0 8.79492 0.027832 8.86084 0.0834961 8.9165C0.13916 8.97217 0.205078 9 0.28125 9ZM1.96875 1.6875C1.89258 1.6875 1.82666 1.71533 1.771 1.771C1.71533 1.82666 1.6875 1.89258 1.6875 1.96875V3.375H2.8125V1.96875C2.8125 1.89258 2.78467 1.82666 2.729 1.771C2.67334 1.71533 2.60742 1.6875 2.53125 1.6875H1.96875ZM2.15332 1.40625C2.03027 1.29492 1.96875 1.17773 1.96875 1.05469C1.96875 1.01367 1.99072 0.956543 2.03467 0.883301C2.07861 0.810059 2.12109 0.74707 2.16211 0.694336L2.22363 0.615234C2.26465 0.832031 2.35254 0.978516 2.4873 1.05469C2.52832 1.08984 2.5415 1.14111 2.52686 1.2085C2.51221 1.27588 2.48145 1.3418 2.43457 1.40625C2.4873 1.40625 2.5752 1.35352 2.69824 1.24805C2.77441 1.17773 2.8125 1.09863 2.8125 1.01074C2.8125 0.881836 2.74805 0.764648 2.61914 0.65918C2.56055 0.606445 2.52246 0.525879 2.50488 0.41748C2.4873 0.309082 2.4873 0.210938 2.50488 0.123047L2.53125 0C2.22656 0.117188 2.00098 0.275391 1.85449 0.474609C1.7373 0.638672 1.68164 0.802734 1.6875 0.966797C1.69336 1.14844 1.70801 1.25098 1.73145 1.27441C1.77246 1.30957 1.83838 1.34033 1.9292 1.3667C2.02002 1.39307 2.09473 1.40625 2.15332 1.40625ZM4.21875 1.6875C4.14258 1.6875 4.07666 1.71533 4.021 1.771C3.96533 1.82666 3.9375 1.89258 3.9375 1.96875V3.375H5.0625V1.96875C5.0625 1.89258 5.03467 1.82666 4.979 1.771C4.92334 1.71533 4.85742 1.6875 4.78125 1.6875H4.21875ZM4.40332 1.40625C4.28027 1.29492 4.21875 1.17773 4.21875 1.05469C4.21875 1.01367 4.24072 0.956543 4.28467 0.883301C4.32861 0.810059 4.37109 0.74707 4.41211 0.694336L4.47363 0.615234C4.51465 0.832031 4.60254 0.978516 4.7373 1.05469C4.77832 1.08984 4.7915 1.14111 4.77686 1.2085C4.76221 1.27588 4.73145 1.3418 4.68457 1.40625C4.7373 1.40625 4.8252 1.35352 4.94824 1.24805C5.02441 1.17773 5.0625 1.09863 5.0625 1.01074C5.0625 0.881836 4.99805 0.764648 4.86914 0.65918C4.81055 0.606445 4.77246 0.525879 4.75488 0.41748C4.7373 0.309082 4.7373 0.210938 4.75488 0.123047L4.78125 0C4.47656 0.117188 4.25098 0.275391 4.10449 0.474609C3.9873 0.638672 3.93164 0.802734 3.9375 0.966797C3.94336 1.14844 3.95801 1.25098 3.98145 1.27441C4.02246 1.30957 4.08838 1.34033 4.1792 1.3667C4.27002 1.39307 4.34473 1.40625 4.40332 1.40625ZM6.46875 1.6875C6.39258 1.6875 6.32666 1.71533 6.271 1.771C6.21533 1.82666 6.1875 1.89258 6.1875 1.96875V3.375H7.3125V1.96875C7.3125 1.89258 7.28467 1.82666 7.229 1.771C7.17334 1.71533 7.10742 1.6875 7.03125 1.6875H6.46875ZM6.65332 1.40625C6.53027 1.29492 6.46875 1.17773 6.46875 1.05469C6.46875 1.01367 6.49072 0.956543 6.53467 0.883301C6.57861 0.810059 6.62109 0.74707 6.66211 0.694336L6.72363 0.615234C6.76465 0.832031 6.85254 0.978516 6.9873 1.05469C7.02832 1.08984 7.0415 1.14111 7.02686 1.2085C7.01221 1.27588 6.98145 1.3418 6.93457 1.40625C6.9873 1.40625 7.0752 1.35352 7.19824 1.24805C7.27441 1.17773 7.3125 1.09863 7.3125 1.01074C7.3125 0.881836 7.24805 0.764648 7.11914 0.65918C7.06055 0.606445 7.02393 0.525879 7.00928 0.41748C6.99463 0.309082 6.99316 0.210938 7.00488 0.123047L7.03125 0C6.72656 0.117188 6.50098 0.275391 6.35449 0.474609C6.2373 0.638672 6.18164 0.802734 6.1875 0.966797C6.19336 1.14844 6.20801 1.25098 6.23145 1.27441C6.27246 1.30957 6.33838 1.34033 6.4292 1.3667C6.52002 1.39307 6.59473 1.40625 6.65332 1.40625Z" fill="white"/>
</g>
<defs>
<clipPath id="clip0_2113_9">
<rect width="9" height="9" fill="white" transform="matrix(-1 0 0 1 9 0)"/>
</clipPath>
</defs>
</svg>
