<svg width="48" height="48" viewBox="0 0 48 48" fill="none" xmlns="http://www.w3.org/2000/svg">
<path d="M19.8623 10.5043C20.2589 10.4678 20.6536 10.5897 20.96 10.8442C21.2663 11.0988 21.4594 11.4651 21.4961 11.8618C21.5281 12.2088 21.4386 12.555 21.2451 12.8412L21.1553 12.9604L13.8955 21.6801L13.2129 22.5004H38C38.3977 22.5004 38.7793 22.6578 39.0605 22.9389C39.3419 23.2202 39.5 23.6026 39.5 24.0004C39.4999 24.3981 39.3418 24.7798 39.0605 25.061C38.7793 25.3421 38.3977 25.5004 38 25.5004H13.2129L13.8955 26.3198L21.1553 35.0395L21.1562 35.0405C21.2824 35.1919 21.377 35.3669 21.4355 35.5551C21.4941 35.7435 21.5152 35.9417 21.4971 36.1381C21.479 36.3345 21.422 36.5252 21.3301 36.6996C21.261 36.8306 21.1731 36.9503 21.0693 37.0551L20.9609 37.1547C20.6911 37.3783 20.3515 37.5011 20.001 37.5004H19.999C19.7787 37.5008 19.5609 37.4521 19.3613 37.3588C19.1618 37.2655 18.9848 37.1297 18.8438 36.9604L8.86621 24.9877C8.81426 24.9136 8.76731 24.8361 8.72656 24.7553L8.6709 24.645L8.6377 24.6215L8.60547 24.5366C8.53836 24.3668 8.50227 24.1859 8.5 24.0034C8.50118 23.8553 8.52526 23.7087 8.56934 23.5678C8.62691 23.5092 8.68197 23.4386 8.7207 23.35C8.74969 23.2837 8.76284 23.2179 8.77051 23.1625C8.79906 23.1123 8.8302 23.0635 8.86328 23.0161L18.8438 11.0405L18.8447 11.0395C19.0994 10.7331 19.4656 10.5409 19.8623 10.5043Z" fill="black" stroke="white"/>
</svg>
