<svg width="25" height="24" viewBox="0 0 25 24" fill="none" xmlns="http://www.w3.org/2000/svg">
<g clip-path="url(#clip0_3_114)">
<path d="M15.8906 13.17C16.026 13.17 16.5339 13.39 17.4141 13.83C18.2943 14.27 18.7604 14.535 18.8125 14.625C18.8333 14.675 18.8438 14.75 18.8438 14.85C18.8438 15.18 18.7552 15.56 18.5781 15.99C18.4115 16.38 18.0417 16.7075 17.4688 16.9725C16.8958 17.2375 16.3646 17.37 15.875 17.37C15.2812 17.37 14.2917 17.06 12.9062 16.44C11.8854 15.99 11 15.4 10.25 14.67C9.5 13.94 8.72917 13.015 7.9375 11.895C7.1875 10.825 6.81771 9.85501 6.82812 8.98501V8.86501C6.85938 7.95501 7.24479 7.16501 7.98438 6.49501C8.23438 6.27501 8.50521 6.16501 8.79688 6.16501C8.85938 6.16501 8.95312 6.17251 9.07812 6.18751C9.20312 6.20251 9.30208 6.21001 9.375 6.21001C9.57292 6.21001 9.71094 6.24251 9.78906 6.30751C9.86719 6.37251 9.94792 6.51001 10.0312 6.72001C10.1146 6.92001 10.2865 7.36001 10.5469 8.04001C10.8073 8.72001 10.9375 9.09501 10.9375 9.16501C10.9375 9.37501 10.7578 9.66251 10.3984 10.0275C10.0391 10.3925 9.85938 10.625 9.85938 10.725C9.85938 10.795 9.88542 10.87 9.9375 10.95C10.2917 11.68 10.8229 12.365 11.5312 13.005C12.1146 13.535 12.901 14.04 13.8906 14.52C14.0156 14.59 14.1302 14.625 14.2344 14.625C14.3906 14.625 14.6719 14.3825 15.0781 13.8975C15.4844 13.4125 15.7552 13.17 15.8906 13.17ZM12.7188 21.12C14.0417 21.12 15.3099 20.87 16.5234 20.37C17.737 19.87 18.7812 19.2 19.6562 18.36C20.5312 17.52 21.2292 16.5175 21.75 15.3525C22.2708 14.1875 22.5312 12.97 22.5312 11.7C22.5312 10.43 22.2708 9.21251 21.75 8.04751C21.2292 6.88251 20.5312 5.88001 19.6562 5.04001C18.7812 4.20001 17.737 3.53001 16.5234 3.03001C15.3099 2.53001 14.0417 2.28001 12.7188 2.28001C11.3958 2.28001 10.1276 2.53001 8.91406 3.03001C7.70052 3.53001 6.65625 4.20001 5.78125 5.04001C4.90625 5.88001 4.20833 6.88251 3.6875 8.04751C3.16667 9.21251 2.90625 10.43 2.90625 11.7C2.90625 13.73 3.53125 15.57 4.78125 17.22L3.54688 20.715L7.32812 19.56C8.97396 20.6 10.7708 21.12 12.7188 21.12ZM12.7188 0.390015C14.3125 0.390015 15.8359 0.690015 17.2891 1.29001C18.7422 1.89001 19.9948 2.69501 21.0469 3.70501C22.099 4.71501 22.9375 5.91751 23.5625 7.31251C24.1875 8.70751 24.5 10.17 24.5 11.7C24.5 13.23 24.1875 14.6925 23.5625 16.0875C22.9375 17.4825 22.099 18.685 21.0469 19.695C19.9948 20.705 18.7422 21.51 17.2891 22.11C15.8359 22.71 14.3125 23.01 12.7188 23.01C10.6875 23.01 8.78646 22.54 7.01562 21.6L0.5 23.61L2.625 17.535C1.5 15.755 0.9375 13.81 0.9375 11.7C0.9375 10.17 1.25 8.70751 1.875 7.31251C2.5 5.91751 3.33854 4.71501 4.39062 3.70501C5.44271 2.69501 6.69531 1.89001 8.14844 1.29001C9.60156 0.690015 11.125 0.390015 12.7188 0.390015Z" fill="black"/>
</g>
<defs>
<clipPath id="clip0_3_114">
<rect width="24" height="24" fill="white" transform="translate(0.5)"/>
</clipPath>
</defs>
</svg>
